<svg viewBox="0 0 256 256" xmlns="http://www.w3.org/2000/svg">
  <defs>
    <linearGradient id="background" x1="0%" y1="0%" x2="100%" y2="100%">
      <stop offset="0%" style="stop-color:#0f172a"/>
      <stop offset="50%" style="stop-color:#1e293b"/>
      <stop offset="100%" style="stop-color:#020617"/>
    </linearGradient>
    <linearGradient id="filter" x1="0%" y1="0%" x2="0%" y2="100%">
      <stop offset="0%" style="stop-color:#60a5fa"/>
      <stop offset="100%" style="stop-color:#3b82f6"/>
    </linearGradient>
    <filter id="glow">
      <feGaussianBlur stdDeviation="3" result="coloredBlur"/>
      <feMerge> 
        <feMergeNode in="coloredBlur"/>
        <feMergeNode in="SourceGraphic"/>
      </feMerge>
    </filter>
  </defs>
  
  <!-- Background circle -->
  <circle cx="128" cy="128" r="120" fill="url(#background)" stroke="#334155" stroke-width="4"/>
  
  <!-- Filter funnel -->
  <path d="M60 70 L196 70 L170 110 L86 110 Z" fill="url(#filter)" filter="url(#glow)"/>
  
  <!-- Filter body -->
  <path d="M86 110 L170 110 L140 150 L116 150 Z" fill="url(#filter)" filter="url(#glow)"/>
  
  <!-- Filter spout -->
  <rect x="116" y="150" width="24" height="50" fill="url(#filter)" filter="url(#glow)"/>
  
  <!-- Filtered dots -->
  <circle cx="122" cy="210" r="4" fill="#93c5fd" opacity="0.8"/>
  <circle cx="134" cy="216" r="3" fill="#93c5fd" opacity="0.6"/>
  <circle cx="128" cy="224" r="2" fill="#93c5fd" opacity="0.4"/>
  
  <!-- Input particles -->
  <circle cx="80" cy="56" r="3" fill="#cbd5e1" opacity="0.6"/>
  <circle cx="104" cy="46" r="2.4" fill="#cbd5e1" opacity="0.5"/>
  <circle cx="128" cy="50" r="4" fill="#cbd5e1" opacity="0.8"/>
  <circle cx="152" cy="46" r="2.4" fill="#cbd5e1" opacity="0.5"/>
  <circle cx="176" cy="60" r="3" fill="#cbd5e1" opacity="0.6"/>
  <circle cx="116" cy="36" r="2" fill="#cbd5e1" opacity="0.4"/>
  <circle cx="144" cy="38" r="2" fill="#cbd5e1" opacity="0.4"/>
</svg>